<?xml version="1.0" encoding="utf-8"?>
<!-- Generator: Adobe Illustrator 15.1.0, SVG Export Plug-In . SVG Version: 6.00 Build 0)  -->
<!DOCTYPE svg PUBLIC "-//W3C//DTD SVG 1.1//EN" "http://www.w3.org/Graphics/SVG/1.1/DTD/svg11.dtd">
<svg version="1.1" xmlns="http://www.w3.org/2000/svg" xmlns:xlink="http://www.w3.org/1999/xlink" x="0px" y="0px" width="1024px"
	 height="768px" viewBox="0 0 1024 768" enable-background="new 0 0 1024 768" xml:space="preserve">
<g id="Calque_1">
	<path fill="none" d="M-11.796-118.489c282.593-294.154,749.29-303.509,1043.444-20.916"/>
	<text transform="matrix(0.8763 -0.4817 0.4817 0.8763 118.248 -228.5913)"><tspan x="0" y="0" font-family="'Handwriting-Dakota'" font-size="120">M</tspan><tspan x="104.879" y="1.009" font-family="'Handwriting-Dakota'" font-size="120" rotate="6.654">E</tspan><tspan x="170.25" y="7.968" font-family="'Handwriting-Dakota'" font-size="120" rotate="12.607">R</tspan><tspan x="255.083" y="26.801" font-family="'Handwriting-Dakota'" font-size="120" rotate="19.343">R</tspan><tspan x="337.179" y="56.176" font-family="'Handwriting-Dakota'" font-size="120" rotate="25.119">Y</tspan><tspan x="393.931" y="83.002" font-family="'Handwriting-Dakota'" font-size="120" rotate="29.444"> </tspan></text>
	<path fill="none" d="M-195.796-8.489C86.797-302.643,553.494-311.998,847.648-29.405"/>
	<text transform="matrix(0.8577 -0.5142 0.5142 0.8577 -64.3276 -117.7021)"><tspan x="0" y="0" font-family="'Handwriting-Dakota'" font-size="120"> </tspan><tspan x="49.357" y="-0.047" font-family="'Handwriting-Dakota'" font-size="120" rotate="3.859"> </tspan><tspan x="98.606" y="3.228" font-family="'Handwriting-Dakota'" font-size="120" rotate="7.717"> </tspan><tspan x="147.554" y="9.814" font-family="'Handwriting-Dakota'" font-size="120" rotate="11.57"> </tspan><tspan x="195.932" y="19.672" font-family="'Handwriting-Dakota'" font-size="120" rotate="15.412"> </tspan><tspan x="243.544" y="32.751" font-family="'Handwriting-Dakota'" font-size="120" rotate="19.245"> </tspan><tspan x="290.162" y="48.976" font-family="'Handwriting-Dakota'" font-size="120" rotate="23.067"> </tspan><tspan x="335.619" y="68.285" font-family="'Handwriting-Dakota'" font-size="120" rotate="26.885"> </tspan><tspan x="379.648" y="90.014" font-family="'Handwriting-Dakota'" font-size="120" rotate="31.551">X</tspan><tspan x="440.857" y="126.255" font-family="'Handwriting-Dakota'" font-size="120" rotate="38.347">M</tspan><tspan x="522.664" y="191.582" font-family="'Handwriting-Dakota'" font-size="120" rotate="45.68">A</tspan><tspan x="581.925" y="252.071" font-family="'Handwriting-Dakota'" font-size="120" rotate="52.278">S</tspan><tspan x="633.406" y="319.84" font-family="'Handwriting-Dakota'" font-size="120" rotate="57.515"> </tspan><tspan x="660.021" y="361.271" font-family="'Handwriting-Dakota'" font-size="120" rotate="61.672">!</tspan></text>
</g>
<g id="path">
	<path fill="none" stroke="#00F900" stroke-miterlimit="10" d="M42-160c0,0,74.957-43.494,88.669-93.092
		c0.542-1.96,0.988-3.93,1.331-5.908c9-52,27-93.752,57-86.376c0,0,19-1.624,44,29.376c0,0,42,36,63-36c0,0,41-106,137-72
		c0,0,75,78-61,99c0,0-61,16-17,49c0,0,49,33.276,146-19.362c0,0,70-31.638,84,10.362c0,0,7,33-31,64c0,0-46,47,68,33
		c0,0,108-47,92,14c0,0-21,89-269,34c0,0-69-25-91,27"/>
</g>
<g id="decors">
	<circle fill="#FF0000" cx="52" cy="-208" r="10"/>
	<circle fill="#FF0000" cx="157" cy="-235" r="10"/>
	<circle fill="#FF0000" cx="108" cy="-304" r="8"/>
	<circle fill="#FF0000" cx="554" cy="-91" r="14"/>
	<circle fill="#FF0000" cx="206" cy="-407" r="10"/>
	<circle fill="#FF0000" cx="186" cy="-314" r="10"/>
	<circle fill="#FF0000" cx="310" cy="-314" r="12"/>
	<circle fill="#FF0000" cx="394" cy="-407" r="10"/>
	<circle fill="#FF0000" cx="484" cy="-407" r="18"/>
	<circle fill="#FF0000" cx="326" cy="-252" r="10"/>
	<circle fill="#FF0000" cx="404" cy="-304" r="10"/>
	<circle fill="#FF0000" cx="322" cy="-431" r="10"/>
	<circle fill="#FF0000" cx="562" cy="-326" r="8"/>
	<circle fill="#FF0000" cx="494" cy="-165" r="10"/>
	<circle fill="#FF0000" cx="552" cy="-267" r="10"/>
	<circle fill="#FF0000" cx="681" cy="-231" r="10"/>
	<circle fill="#FF0000" cx="253" cy="-471" r="8"/>
	<circle fill="#FF0000" cx="253" cy="-345" r="8"/>
	<circle fill="#FF0000" cx="734" cy="-165" r="8"/>
	<circle fill="#0000FF" cx="176" cy="-369" r="8"/>
	<circle fill="#0000FF" cx="176" cy="-245" r="8"/>
	<circle fill="#0000FF" cx="353" cy="-395" r="10"/>
	<circle fill="#0000FF" cx="298" cy="-419" r="8"/>
	<circle fill="#0000FF" cx="603" cy="-296" r="8"/>
	<circle fill="#0000FF" cx="455" cy="-241" r="10"/>
	<circle fill="#0000FF" cx="655" cy="-170" r="11"/>
	<circle fill="#FFFF00" cx="665" cy="-91" r="14"/>
	<circle fill="#FFFF00" cx="474" cy="-332" r="10"/>
	<circle fill="#FFFF00" cx="364" cy="-361" r="10"/>
	<circle fill="#FFFF00" cx="354" cy="-471" r="10"/>
	<circle fill="#FFFF00" cx="214" cy="-281" r="10"/>
	<circle fill="#FFFF00" cx="334" cy="-181" r="10"/>
	<circle fill="#0000FF" cx="505" cy="-271" r="8"/>
	<circle fill="#0000FF" cx="355" cy="-221" r="8"/>
	<circle fill="#0000FF" cx="255" cy="-381" r="12"/>
	<circle fill="#FFFF00" cx="265" cy="-271" r="10"/>
	<circle fill="#00FF00" cx="365" cy="-291" r="10"/>
	<circle fill="#00FF00" cx="405" cy="-461" r="10"/>
	<circle fill="#FFFF00" cx="575" cy="-212" r="10"/>
	<circle fill="#FF00FF" cx="354" cy="-82" r="14"/>
	<circle fill="#0000FF" cx="734" cy="-191" r="8"/>
	<circle fill="#FFFF00" cx="734" cy="-232" r="15"/>
	<circle fill="#00FF00" cx="621" cy="-170" r="9"/>
</g>
<g id="zone">
	<rect x="0" y="-540" fill="none" stroke="#FF8800" stroke-miterlimit="10" width="855" height="540"/>
</g>
</svg>
